<svg id="Layer_1" data-name="Layer 1" xmlns="http://www.w3.org/2000/svg" viewBox="0 0 1000 1000"><defs><style>.cls-1{fill:#f26522;}</style></defs><path d="M767,190.48c-2.66-1.3-6.93.08-8.67,2.12q-9.3,11-18.62,21.89c-12.39,14.47-24.85,28.87-37.13,43.42a20.47,20.47,0,0,0-4.88.06,20.26,20.26,0,0,0-17.28,22.84,19.79,19.79,0,0,0,.48,2.34c-7.93,9.28-15.81,18.6-23.75,27.87-10.27,12-20.63,23.93-30.81,36a20.2,20.2,0,0,0-23,22.79,20.51,20.51,0,0,0,.66,3,5.36,5.36,0,0,1-1.16,1.91c-6.34,7.29-12.58,14.67-18.81,22.05-6.44,7.63-12.81,15.31-19.25,22.94q-10,11.82-20,23.56a13,13,0,0,1-2.78,2.57,20.23,20.23,0,0,0-23.77,22.67,20.53,20.53,0,0,0,1,3.95,10.17,10.17,0,0,1-1.68,2.8c-8,9.55-16.13,18.95-24.22,28.41q-22.69,26.54-45.37,53.1a16,16,0,0,1-2.71,2.59,20.8,20.8,0,0,0-5.46,0,21.07,21.07,0,0,0-18,23.75,21.61,21.61,0,0,0,.75,3.27c-5.8,6.81-11.53,13.66-17.34,20.45-5.46,6.39-11,12.67-16.48,19.08-6.38,7.53-12.59,15.2-19,22.7a14.16,14.16,0,0,1-3.09,2.87,31.85,31.85,0,0,0-38,41.65,10.24,10.24,0,0,1-3.46,8,24,24,0,0,0-2,2Q312.05,716.27,301,729.44c-2.38,2.83-5.1,5-9.06,4.91a7,7,0,0,0-3.93,1.11c-4.54,3-9.27,5.81-12.47,10.4s-6.31,9.32-6.49,15.07c-.24,8-5.46,14.39-13.32,15.77a8.69,8.69,0,0,0-3,.9c-5.94,3.78-11.69,7.69-15,14.35-1.84,3.71-2,7.31.77,10.52a75.72,75.72,0,0,0,22,18.16c3.05,1.63,5.75,1.2,8.6-.66a26.46,26.46,0,0,0,9.7-11.32c1.53-3.36,4-6.78,3.35-10.7-.72-4.64,2-7.35,4.48-10.51a10.73,10.73,0,0,1,8-4.2c4.07-.4,7-3.2,10.16-5.4a27.09,27.09,0,0,0,8.89-10.45c2.15-4.56,4.64-9,4-14.35-.17-1.37-.31-2.73.71-3.93,3.06-3.6,6.08-7.25,9.12-10.87,6.36-7.55,12.83-15,19-22.73a5.82,5.82,0,0,1,3.8-2.46,31.86,31.86,0,0,0,36.37-45.81l.11-.16c4.64-5.6,9.18-11.28,13.81-16.88,12.74-15.4,25.58-30.73,38.23-46.21a13.25,13.25,0,0,1,2.95-2.74,20.61,20.61,0,0,0,3.83-.16,21.06,21.06,0,0,0,18-23.75A22.13,22.13,0,0,0,463,575a7.48,7.48,0,0,1,1.54-2.25c2.49-2.58,4.6-5.51,6.89-8.28q10.86-13.18,21.74-26.35c6.38-7.69,12.85-15.3,19.23-23,7.25-8.74,14.35-17.61,21.72-26.24a12.63,12.63,0,0,1,3-3,20.19,20.19,0,0,0,10.43-2.22,19.25,19.25,0,0,0,4.85-3.23,17.15,17.15,0,0,0,6-12.15,20.26,20.26,0,0,0,0-5.39c0-.21-.08-.4-.12-.61a9.86,9.86,0,0,1,2.34-5.18c8.66-10.68,17.51-21.2,26.3-31.77q14.73-17.73,29.46-35.45a21.63,21.63,0,0,1,2.81-3.1,20.19,20.19,0,0,0,24.34-22.54,20.62,20.62,0,0,0-1.53-5.35q24.6-29.64,49.07-59.4c.74-.89,1.46-1.77,2.19-2.62a20.23,20.23,0,0,0,24.5-29.55l.56-.66c6.5-7.59,12.79-15.36,19.18-23q8.05-9.71,16.15-19.37c5.26-6.29,10.6-12.51,15.78-18.86,2-2.51,3.91-5.1,3.11-8.85C771.78,193.33,769.52,191.68,767,190.48Z"/><polygon class="cls-1" points="704.11 121.27 720.55 130.41 737.4 122.05 733.79 140.51 746.95 153.95 728.28 156.22 719.56 172.89 711.63 155.83 693.08 152.7 706.85 139.88 704.11 121.27"/><polygon class="cls-1" points="832.94 175.92 846.83 186.14 863.13 180.5 857.7 196.87 868.1 210.62 850.85 210.51 840.99 224.66 835.76 208.22 819.26 203.21 833.27 193.16 832.94 175.92"/><polygon class="cls-1" points="759.61 287.27 772.46 296.73 787.53 291.51 782.51 306.65 792.14 319.38 776.18 319.28 767.05 332.37 762.22 317.16 746.95 312.52 759.92 303.23 759.61 287.27"/><polygon class="cls-1" points="605.9 280.17 612.55 285.06 620.34 282.37 617.74 290.19 622.72 296.77 614.47 296.72 609.75 303.49 607.25 295.63 599.36 293.23 606.06 288.42 605.9 280.17"/></svg>